<svg width="55" height="55" viewBox="0 0 55 55" fill="none" xmlns="http://www.w3.org/2000/svg">
<mask id="mask0_47_131" style="mask-type:alpha" maskUnits="userSpaceOnUse" x="0" y="0" width="55" height="55">
<path d="M25.1677 23.3374C24.3684 22.8235 23.9687 22.1727 23.9687 21.3848C23.9687 20.5285 24.3018 19.8605 24.9679 19.3809C25.6672 18.9014 26.5498 18.6616 27.6155 18.6616C29.7398 18.6616 31.2379 19.4958 32.11 21.1642C32.2268 21.3876 32.4981 21.4827 32.7135 21.3586L36.502 19.1748C36.6997 19.0608 36.7735 18.805 36.6592 18.6039C35.8049 17.1011 34.622 15.9214 33.1107 15.0648C31.5121 14.1057 29.6804 13.6261 27.6155 13.6261C25.0178 13.6261 22.8364 14.3455 21.0713 15.7842C19.3394 17.2229 18.4735 19.124 18.4735 21.4876C18.4402 22.755 18.6734 23.8683 19.1729 24.8274C19.7058 25.7866 20.4551 26.5573 21.421 27.1396C22.4201 27.722 23.3193 28.1673 24.1186 28.4756C24.9512 28.7839 25.967 29.0922 27.1659 29.4005C30.3298 30.1883 31.9118 31.2845 31.9118 32.6889C31.9118 34.6072 30.4964 35.5663 27.6655 35.5663C24.996 35.5663 23.2088 34.495 22.3041 32.3525C22.1996 32.1048 21.9091 31.993 21.6819 32.1286L17.7959 34.4494C17.6126 34.5589 17.5374 34.7925 17.6294 34.9887C18.4353 36.7073 19.6659 38.0645 21.321 39.0603C23.0862 40.1222 25.201 40.6532 27.6655 40.6532C30.4297 40.6532 32.7444 39.9509 34.6094 38.5465C36.4745 37.142 37.407 35.2066 37.407 32.7403C37.4403 31.4386 37.1905 30.3082 36.6576 29.3491C36.1581 28.3557 35.4254 27.5678 34.4596 26.9855C33.4937 26.3689 32.5779 25.9065 31.712 25.5982C30.846 25.2899 29.8303 24.9987 28.6646 24.7247C27.1326 24.2794 25.967 23.8169 25.1677 23.3374Z" fill="#111111"/>
<path fill-rule="evenodd" clip-rule="evenodd" d="M27.5 0C12.3122 0 0 12.3122 0 27.5C0 42.6878 12.3122 55 27.5 55C42.6878 55 55 42.6878 55 27.5C55 12.3122 42.6878 0 27.5 0ZM5.45045 27.5C5.45045 15.3224 15.3224 5.45045 27.5 5.45045C39.6776 5.45045 49.5495 15.3224 49.5495 27.5C49.5495 39.6776 39.6776 49.5495 27.5 49.5495C15.3224 49.5495 5.45045 39.6776 5.45045 27.5Z" fill="#111111"/>
</mask>
<g mask="url(#mask0_47_131)">
<path d="M58.1026 69.8338C48.2962 136.902 14.9557 178.376 -16.3655 162.468C-47.6867 146.56 -65.1279 79.294 -55.3214 12.2257C-45.515 -54.8426 -12.1745 -96.3162 19.1467 -80.4082C50.4679 -64.5001 67.909 2.76547 58.1026 69.8338Z" fill="url(#paint0_radial_47_131)"/>
<path d="M91.5924 40.6669C86.3735 90.8052 68.7127 126.71 52.1459 120.862C35.579 115.015 26.3797 69.6293 31.5986 19.491C36.8175 -30.6472 54.4783 -66.5519 71.0451 -60.7043C87.6119 -54.8568 96.8112 -9.47132 91.5924 40.6669Z" fill="url(#paint1_radial_47_131)"/>
<path d="M44.2379 38.3184C48.3714 59.496 40.8507 84.6778 27.44 94.5636C14.0293 104.449 -0.193113 95.2955 -4.32657 74.1178C-8.46003 52.9402 -0.939323 27.7584 12.4714 17.8727C25.8821 7.98693 40.1045 17.1408 44.2379 38.3184Z" fill="url(#paint2_radial_47_131)"/>
<path d="M25.1294 31.7514C5.9949 29.0394 -8.77222 10.8288 -7.85386 -8.92291C-6.93549 -28.6747 9.32058 -42.488 28.4551 -39.7759C47.5896 -37.0638 62.3567 -18.8533 61.4384 0.898438C60.52 20.6502 44.2639 34.4635 25.1294 31.7514Z" fill="url(#paint3_radial_47_131)"/>
</g>
<defs>
<radialGradient id="paint0_radial_47_131" cx="0" cy="0" r="1" gradientUnits="userSpaceOnUse" gradientTransform="translate(1.39059 41.0297) rotate(98.3186) scale(122.729 60.2826)">
<stop stop-color="#F04D42"/>
<stop offset="1" stop-color="#F04D42" stop-opacity="0"/>
</radialGradient>
<radialGradient id="paint1_radial_47_131" cx="0" cy="0" r="1" gradientUnits="userSpaceOnUse" gradientTransform="translate(61.5955 30.0789) rotate(95.9425) scale(91.2738 30.9319)">
<stop stop-color="#5F5DF9"/>
<stop offset="1" stop-color="#5F5DF9" stop-opacity="0"/>
</radialGradient>
<radialGradient id="paint2_radial_47_131" cx="0" cy="0" r="1" gradientUnits="userSpaceOnUse" gradientTransform="translate(19.9557 56.2182) rotate(78.9558) scale(39.069 27.2615)">
<stop stop-color="#F3D37E"/>
<stop offset="1" stop-color="#F3D37E" stop-opacity="0"/>
</radialGradient>
<radialGradient id="paint3_radial_47_131" cx="0" cy="0" r="1" gradientUnits="userSpaceOnUse" gradientTransform="translate(26.7923 -4.01222) rotate(-171.933) scale(34.9924 35.6431)">
<stop stop-color="#D478D8"/>
<stop offset="1" stop-color="#D478D8" stop-opacity="0"/>
</radialGradient>
</defs>
</svg>
