<?xml version="1.0" encoding="UTF-8"?>
<svg width="284px" height="284px" viewBox="0 0 284 284" version="1.1" xmlns="http://www.w3.org/2000/svg" xmlns:xlink="http://www.w3.org/1999/xlink">
    <!-- Generator: Sketch 50.2 (55047) - http://www.bohemiancoding.com/sketch -->
    <title>dolomite logo svg white</title>
    <desc>Created with Sketch.</desc>
    <defs></defs>
    <g id="Page-1" stroke="none" stroke-width="1" fill="none" fill-rule="evenodd">
        <g id="Group-2" transform="translate(8.000000, 6.000000)" fill="#0FFFFF" fill-rule="nonzero" stroke="#FFFFFF" stroke-width="15">
            <g id="dolomite-logo-svg-white" transform="translate(0.000000, 2.000000)">
                <path d="M0,134 C0,59.9668491 59.9668491,0 134,0 C208.033151,0 268,59.9668491 268,134 C268,208.033151 208.033151,268 134,268 C59.9668491,268 0,208.033151 0,134 Z" id="svg_1" fill-opacity="0"></path>
                <path d="M4,96.885334 C29.2032803,89.6194797 24.5885905,87.8895209 29.9132269,89.6194797 C35.2378632,91.3494465 126.439744,261.561575 127,264" id="svg_8" fill-opacity="0"></path>
                <path d="M30,91 C33.139535,91.6458791 68.3495323,113.350333 72.2196715,118.317074 C76.0898106,123.283814 81.3672665,139.248335 85.5892329,142.441241 C89.8112073,145.634147 93.6813384,144.569848 97.5514776,143.150777 C101.421617,141.731706 114.439351,124.348122 117.957655,121.864751 C121.475959,119.381381 125.697925,120.800444 127.808912,124.702885 C129.9199,128.605319 195.39939,246.263554 198,251" id="svg_9" fill-opacity="0"></path>
                <path d="M120,123 L110,232 L120,123 Z" id="svg_10"></path>
                <path d="M141,144.360818 C144.897746,141.529672 145.252092,142.945249 147.378134,140.467993 C149.504184,137.990737 150.212868,131.974539 151.275889,128.435604 C152.33891,124.89667 156.591002,125.958349 159.425736,127.020027 C162.260461,128.081714 165.095195,129.497291 167.575583,133.036226 C170.05597,136.57516 225.333178,201.3377 231.356983,204.168854 C237.380779,207 238.100098,206.379109 245,207" id="svg_12" fill-opacity="0"></path>
            </g>
        </g>
    </g>
</svg>