<svg xmlns="http://www.w3.org/2000/svg" xmlns:xlink="http://www.w3.org/1999/xlink" width="98" height="37" viewBox="0 0 98 37"><defs><style>.a{fill:#fff;}.b{fill:#2d6dcb;}.c{fill:#766b1d;}.d{fill:#cfb916;}.e{fill:#b6a212;}.f{fill:#9d4b17;}.g{fill:url(#a);}.h{fill:url(#b);}.i{fill:url(#c);}.j{opacity:0.61;}.k{fill:url(#f);}.l{fill:none;}</style><linearGradient id="a" y1="0.5" x2="1" y2="0.5" gradientUnits="objectBoundingBox"><stop offset="0" stop-color="#743687"/><stop offset="0.109" stop-color="#62327e"/><stop offset="0.375" stop-color="#3c2a6b"/><stop offset="0.621" stop-color="#20255e"/><stop offset="0.837" stop-color="#0f2255"/><stop offset="1" stop-color="#0a2153"/></linearGradient><linearGradient id="b" x1="0.5" y1="1" x2="0.5" y2="0" xlink:href="#a"/><linearGradient id="c" y1="0.5" x2="1" y2="0.5" gradientUnits="objectBoundingBox"><stop offset="0" stop-color="#a18cc0"/><stop offset="0.674" stop-color="#564492"/><stop offset="1" stop-color="#37277f"/></linearGradient><linearGradient id="f" y1="0.5" x2="1" y2="0.5" gradientUnits="objectBoundingBox"><stop offset="0" stop-color="#4fbdeb"/><stop offset="1" stop-color="#1b519f"/></linearGradient></defs><g transform="translate(0 -0.116)"><g transform="translate(1 5.012)"><g transform="translate(33.998 8.104)"><path class="a" d="M-2175.046,2306.473a4.02,4.02,0,0,1,2.275.121.878.878,0,0,1,.649.787c.01.364-.339.611-.664.734a4.114,4.114,0,0,1-2.341.126c-.473-.119-1.025-.488-.919-1.009C-2175.94,2306.8-2175.462,2306.587-2175.046,2306.473Z" transform="translate(2225.851 -2306.366)"/><g transform="translate(0 0.23)"><path class="a" d="M-2498.816,2307.158c1.915,0,3.829,0,5.744,0a4.819,4.819,0,0,1,3.387,1.069,2.971,2.971,0,0,1,.721,3.411,3.3,3.3,0,0,1-1.167,1.188,2.372,2.372,0,0,1,.366,3.81,5.267,5.267,0,0,1-3.436.778c-1.871,0-3.743,0-5.615,0Q-2498.82,2312.286-2498.816,2307.158Zm4.463,9.785c1.287-.032,2.661.18,3.862-.4a1.921,1.921,0,0,0,.263-3.208c-.72-.557-1.7-.02-2.462-.432-.112-.148,0-.433.208-.357a3.325,3.325,0,0,0,2.568-.5,2.29,2.29,0,0,0,.514-2.582,3.007,3.007,0,0,0-1.9-1.61,9.527,9.527,0,0,0-3.05-.25C-2494.355,2310.718-2494.343,2313.831-2494.352,2316.943Z" transform="translate(2498.818 -2307.156)"/></g><path class="a" d="M-2424.813,2307.3q1.9,0,3.8,0,0,5.123,0,10.244-1.9,0-3.8,0Q-2424.815,2312.426-2424.813,2307.3Z" transform="translate(2436.197 -2307.049)"/><g transform="translate(38.069 0.228)"><path class="a" d="M-2251.816,2307.143c1.87,0,3.738,0,5.606,0a4.947,4.947,0,0,1,3.519,1.064,2.974,2.974,0,0,1,.73,3.414,3.215,3.215,0,0,1-1.171,1.185,2.38,2.38,0,0,1,.446,3.748,4.565,4.565,0,0,1-3.071.846h-6.058Q-2251.82,2312.27-2251.816,2307.143Zm4.461,9.779c1.291-.02,2.672.186,3.875-.4a1.922,1.922,0,0,0,.26-3.2c-.689-.528-1.6-.087-2.363-.373-.228-.058-.11-.3-.077-.444a3.488,3.488,0,0,0,2.736-.467,2.285,2.285,0,0,0,.526-2.586,3,3,0,0,0-1.891-1.612,9.467,9.467,0,0,0-3.055-.253C-2247.36,2310.7-2247.337,2313.811-2247.355,2316.921Z" transform="translate(2251.818 -2307.138)"/></g><path class="a" d="M-2139.177,2308.255c1.267-.5,2.523-1.038,3.786-1.552,0,.81,0,1.618,0,2.426.559,0,1.119,0,1.678.012,0,.186,0,.37-.006.555-.558.008-1.115,0-1.672.011.008,1.887-.016,3.776.012,5.663.032.283,0,.794.4.8.657-.152.869-.889,1.28-1.34.314-.23.5.25.321.481a3.808,3.808,0,0,1-4.607,1.535,2.062,2.062,0,0,1-1.188-1.958c-.033-1.732-.008-3.464-.023-5.2h-1.168c0-.189,0-.378,0-.565l1.173,0Q-2139.186,2308.692-2139.177,2308.255Z" transform="translate(2195.549 -2306.541)"/><path class="a" d="M-2389.907,2317.531q1.846-.007,3.693-.008c.007,2.317,0,4.636.009,6.955-.032.328.156.765.549.716a4.244,4.244,0,0,0,1.691-.889q0-3.387,0-6.776c1.233,0,2.467,0,3.7,0,0,2.865-.01,5.727,0,8.592-1.235.027-2.47.006-3.7.011,0-.422,0-.845,0-1.268a5.632,5.632,0,0,1-3.2,1.289,2.832,2.832,0,0,1-2.231-.819,3.127,3.127,0,0,1-.511-1.935Q-2389.911,2320.465-2389.907,2317.531Z" transform="translate(2406.692 -2315.636)"/><g transform="translate(27.64 1.819)"><path class="a" d="M-2319.4,2321.079a4.418,4.418,0,0,1,3.54-3.9,4.834,4.834,0,0,1,3.7.655,4.931,4.931,0,0,1,1.868,3.83c-1.767-.008-3.534,0-5.3,0,.007.954-.012,1.909.018,2.865,0,.317.1.756.487.789a4.494,4.494,0,0,0,3.689-1.774c.192-.181.37-.525.685-.431s.175.5.022.68a5.331,5.331,0,0,1-5.753,1.8A4.457,4.457,0,0,1-2319.4,2321.079Zm3.839-2.89c-.054,1-.013,2.01-.027,3.015h2c-.015-1,.041-2-.029-2.991-.024-.506-.59-.691-1.019-.659C-2315.028,2317.53-2315.568,2317.7-2315.556,2318.189Z" transform="translate(2319.413 -2317.077)"/></g><path class="a" d="M-2175.622,2323.563h3.815q.005,3.843,0,7.686-1.909,0-3.818,0Q-2175.621,2327.406-2175.622,2323.563Z" transform="translate(2225.48 -2320.763)"/></g><g transform="translate(0 -0.896)"><path class="a" d="M-2337.653,2083.891a2.033,2.033,0,0,1,2.579,2.339,2.048,2.048,0,0,1-3.553.921A2.051,2.051,0,0,1-2337.653,2083.891Z" transform="translate(2346.684 -2083.362)"/><path class="b" d="M-2304.03,2081.1a9.579,9.579,0,0,1,4.367.487,13.884,13.884,0,0,1,8.441,7.29,13.908,13.908,0,0,1,.828,9.752,1.961,1.961,0,0,1-.978,1.418,1.666,1.666,0,0,1-2.335-.99,2.537,2.537,0,0,1,.167-1.573,10.5,10.5,0,0,0-1.668-8.841,10.717,10.717,0,0,0-8.114-4.377,1.612,1.612,0,0,1-1.69-1.43A1.615,1.615,0,0,1-2304.03,2081.1Z" transform="translate(2317.976 -2081)"/><path class="b" d="M-2383.818,2103.756a1.705,1.705,0,0,1,2.149,1.769,2.127,2.127,0,0,1-.626,1.151,10.488,10.488,0,0,0-3,8.54,10.567,10.567,0,0,0,6.809,8.792c.733.321,1.7.293,2.167,1.052a1.638,1.638,0,0,1-1.465,2.549,13.5,13.5,0,0,1-7.34-4.248,14.031,14.031,0,0,1-3.583-9.14,14.124,14.124,0,0,1,3.575-9.374A3.634,3.634,0,0,1-2383.818,2103.756Z" transform="translate(2388.706 -2100.251)"/><g transform="translate(8.161 5.508)"><path class="b" d="M-2335.867,2122.251a5.127,5.127,0,0,1,3.113-4.812c.008,1.063.012,2.127,0,3.191a6.731,6.731,0,0,1,5.056-1.026,6.837,6.837,0,0,1,5.09,4.256,6.861,6.861,0,0,1-2.369,7.97,6.758,6.758,0,0,1-5.522,1.119,8.047,8.047,0,0,1-2.674-1.234c-.38.192-.727.525-1.188.447a1.69,1.69,0,0,1-1.5-1.83C-2335.877,2127.641-2335.881,2124.946-2335.867,2122.251Zm6.037.349a3.581,3.581,0,0,0-2.927,3.7,3.612,3.612,0,0,0,3.07,3.743,3.826,3.826,0,0,0,4.419-3.753A3.814,3.814,0,0,0-2329.83,2122.6Z" transform="translate(2335.877 -2117.44)"/></g><g transform="translate(19.919 22.213)"><path class="c" d="M-2258.656,2226.029l1.107.639,0,1.1-1.107-.639Z" transform="translate(2258.659 -2226.029)"/></g><g transform="translate(18.802 23.322)"><path class="d" d="M-2265.981,2233.938l1.1.633-.01.006-1.107-.639,1.11-.645,1.107.639-.01.006-1.1-.633Z" transform="translate(2266.002 -2233.293)"/></g><g transform="translate(19.919 22.225)"><path class="c" d="M-2257.559,2226.741l0,1.1-1.1-.633,0-1.1Z" transform="translate(2258.659 -2226.108)"/></g><g transform="translate(18.791 22.213)"><path class="e" d="M-2266,2226.674l1.11-.645,0,1.1-1.11.645Z" transform="translate(2266.002 -2226.029)"/></g><g transform="translate(18.812 22.225)"><path class="f" d="M-2265.861,2226.741l1.089-.633,0,1.1-1.089.633Z" transform="translate(2265.864 -2226.108)"/></g><g transform="translate(18.812 22.225)"><path class="g" d="M-2264.772,2226.108l0,1.1-1.089.633,0-1.1Z" transform="translate(2265.864 -2226.108)"/></g><g transform="translate(19.919 22.225)"><path class="h" d="M-2258.656,2226.108l1.1.633,0,1.1-1.1-.633Z" transform="translate(2258.659 -2226.108)"/></g><g transform="translate(18.822 23.334)"><path class="i" d="M-2263.679,2234.006l-1.089.633-1.1-.633,1.089-.633Z" transform="translate(2265.864 -2233.373)"/></g><g transform="translate(18.812 22.866)"><path class="i" d="M-2265.861,2230.3l1.1.633,0,1.1-1.1-.633Z" transform="translate(2265.864 -2230.296)"/></g><g transform="translate(19.916 22.86)"><path class="e" d="M-2258.677,2230.9l1.11-.645,0,1.1-1.11.645Z" transform="translate(2258.68 -2230.256)"/></g><g transform="translate(19.926 22.866)"><path class="f" d="M-2257.519,2230.3l0,1.1-1.089.633,0-1.1Z" transform="translate(2258.612 -2230.295)"/></g><g transform="translate(19.937 22.872)"><path class="i" d="M-2257.45,2230.336l0,1.1-1.089.633,0-1.1Z" transform="translate(2258.542 -2230.336)"/></g><g transform="translate(18.809 22.223)"><g class="j" transform="translate(0 0.633)"><path class="k" d="M-2264.855,2230.889l0,1.1-1.1-.633,0-1.1Z" transform="translate(2265.954 -2230.256)"/></g><g transform="translate(0.003 0)"><path class="k" d="M-2263.748,2226.7l-1.089.633-1.1-.633,1.089-.633Z" transform="translate(2265.934 -2226.069)"/></g><g transform="translate(1.107 0.639)"><path class="k" d="M-2258.629,2230.928l1.089-.633,0,1.1-1.089.633Z" transform="translate(2258.632 -2230.295)"/></g></g><g transform="translate(18.815 22.204)"><path class="d" d="M-2265.892,2226.634l1.1.633-.011.006-1.106-.639,1.11-.645,1.107.639-.01.006-1.1-.633Z" transform="translate(2265.913 -2225.989)"/></g><g transform="translate(19.905 23.503)"><path class="e" d="M-2258.667,2234.483l0,1.1-.01.006,0-1.1Z" transform="translate(2258.68 -2234.483)"/></g><g transform="translate(19.905 23.51)"><path class="c" d="M-2258.667,2234.529l0,1.1-.01-.006,0-1.1Z" transform="translate(2258.68 -2234.523)"/></g><g transform="translate(15.574 24.239)"><path class="c" d="M-2286.927,2239.256l1.107.639,0,1.1-1.107-.639Z" transform="translate(2286.93 -2239.256)"/></g><g transform="translate(14.456 25.348)"><path class="d" d="M-2294.252,2247.165l1.1.633-.01.006-1.107-.639,1.11-.645,1.107.639-.01.006-1.1-.633Z" transform="translate(2294.273 -2246.52)"/></g><g transform="translate(15.574 24.251)"><path class="c" d="M-2285.83,2239.968l0,1.1-1.1-.633,0-1.1Z" transform="translate(2286.93 -2239.335)"/></g><g transform="translate(14.446 24.239)"><path class="e" d="M-2294.27,2239.9l1.11-.645,0,1.1-1.11.645Z" transform="translate(2294.273 -2239.256)"/></g><g transform="translate(14.467 24.251)"><path class="f" d="M-2294.132,2239.968l1.089-.633,0,1.1-1.089.633Z" transform="translate(2294.135 -2239.335)"/></g><g transform="translate(14.467 24.251)"><path class="g" d="M-2293.043,2239.335l0,1.1-1.089.633,0-1.1Z" transform="translate(2294.135 -2239.335)"/></g><g transform="translate(15.574 24.251)"><path class="h" d="M-2286.927,2239.335l1.1.633,0,1.1-1.1-.633Z" transform="translate(2286.93 -2239.335)"/></g><g transform="translate(14.476 25.36)"><path class="i" d="M-2291.95,2247.233l-1.089.633-1.1-.633,1.089-.633Z" transform="translate(2294.135 -2246.6)"/></g><g transform="translate(14.467 24.892)"><path class="i" d="M-2294.132,2243.523l1.1.633,0,1.1-1.1-.633Z" transform="translate(2294.135 -2243.523)"/></g><g transform="translate(15.571 24.886)"><path class="e" d="M-2286.948,2244.128l1.11-.645,0,1.1-1.11.645Z" transform="translate(2286.951 -2243.483)"/></g><g transform="translate(15.582 24.892)"><path class="f" d="M-2285.79,2243.523l0,1.1-1.089.633,0-1.1Z" transform="translate(2286.882 -2243.523)"/></g><g transform="translate(15.592 24.898)"><path class="i" d="M-2285.721,2243.563l0,1.1-1.089.633,0-1.1Z" transform="translate(2286.813 -2243.563)"/></g><g transform="translate(14.463 24.25)"><g class="j" transform="translate(0 0.633)"><path class="k" d="M-2293.125,2244.116l0,1.1-1.1-.633,0-1.1Z" transform="translate(2294.225 -2243.483)"/></g><g transform="translate(0.003 0)"><path class="k" d="M-2292.019,2239.929l-1.089.633-1.1-.633,1.089-.633Z" transform="translate(2294.204 -2239.296)"/></g><g transform="translate(1.107 0.639)"><path class="k" d="M-2286.9,2244.156l1.089-.633,0,1.1-1.089.633Z" transform="translate(2286.903 -2243.523)"/></g></g><g transform="translate(14.469 24.229)"><path class="d" d="M-2294.163,2239.861l1.1.633-.01.006-1.107-.639,1.11-.645,1.106.639-.01.006-1.1-.633Z" transform="translate(2294.184 -2239.216)"/></g><g transform="translate(15.562 25.529)"><path class="e" d="M-2286.937,2247.71l0,1.1-.01.006,0-1.1Z" transform="translate(2286.951 -2247.71)"/></g><g transform="translate(15.562 25.535)"><path class="c" d="M-2286.937,2247.756l0,1.1-.01-.006,0-1.1Z" transform="translate(2286.951 -2247.75)"/></g><g transform="translate(23.692 20.253)"><path class="c" d="M-2234.1,2213.231l1.107.639,0,1.1-1.107-.639Z" transform="translate(2234.106 -2213.231)"/></g><g transform="translate(22.576 21.362)"><path class="d" d="M-2241.428,2221.14l1.1.633-.01.006-1.107-.639,1.11-.645,1.107.639-.01.006-1.1-.633Z" transform="translate(2241.449 -2220.495)"/></g><g transform="translate(23.692 20.265)"><path class="c" d="M-2233.006,2213.944l0,1.1-1.1-.633,0-1.1Z" transform="translate(2234.105 -2213.311)"/></g><g transform="translate(22.564 20.253)"><path class="e" d="M-2241.446,2213.876l1.11-.645,0,1.1-1.11.645Z" transform="translate(2241.449 -2213.231)"/></g><g transform="translate(22.585 20.265)"><path class="f" d="M-2241.308,2213.944l1.089-.633,0,1.1-1.089.633Z" transform="translate(2241.311 -2213.311)"/></g><g transform="translate(22.585 20.265)"><path class="g" d="M-2240.219,2213.311l0,1.1-1.089.633,0-1.1Z" transform="translate(2241.311 -2213.311)"/></g><g transform="translate(23.692 20.265)"><path class="h" d="M-2234.1,2213.311l1.1.633,0,1.1-1.1-.633Z" transform="translate(2234.105 -2213.311)"/></g><g transform="translate(22.597 21.374)"><path class="i" d="M-2239.125,2221.208l-1.089.633-1.1-.633,1.089-.633Z" transform="translate(2241.311 -2220.575)"/></g><g transform="translate(22.585 20.906)"><path class="i" d="M-2241.308,2217.5l1.1.633,0,1.1-1.1-.633Z" transform="translate(2241.311 -2217.498)"/></g><g transform="translate(23.689 20.9)"><path class="e" d="M-2234.124,2218.1l1.11-.645,0,1.1-1.11.645Z" transform="translate(2234.127 -2217.458)"/></g><g transform="translate(23.699 20.906)"><path class="f" d="M-2232.966,2217.5l0,1.1-1.089.633,0-1.1Z" transform="translate(2234.058 -2217.498)"/></g><g transform="translate(23.71 20.912)"><path class="i" d="M-2232.9,2217.538l0,1.1-1.089.633,0-1.1Z" transform="translate(2233.989 -2217.538)"/></g><g transform="translate(22.583 20.263)"><g class="j" transform="translate(0 0.633)"><path class="k" d="M-2240.3,2218.091l0,1.1-1.1-.633,0-1.1Z" transform="translate(2241.401 -2217.458)"/></g><g transform="translate(0.003)"><path class="k" d="M-2239.2,2213.9l-1.089.633-1.1-.633,1.089-.633Z" transform="translate(2241.38 -2213.271)"/></g><g transform="translate(1.107 0.639)"><path class="k" d="M-2234.076,2218.131l1.089-.633,0,1.1-1.089.633Z" transform="translate(2234.079 -2217.498)"/></g></g><g transform="translate(22.579 20.25)"><path class="d" d="M-2241.407,2213.876l1.1.633-.01.006-1.107-.639,1.11-.645,1.107.639-.01.006-1.1-.633Z" transform="translate(2241.428 -2213.231)"/></g><g transform="translate(23.677 21.544)"><path class="e" d="M-2234.113,2221.686l0,1.1-.01.006,0-1.1Z" transform="translate(2234.127 -2221.686)"/></g><g transform="translate(23.677 21.55)"><path class="c" d="M-2234.113,2221.732l0,1.1-.01-.006,0-1.1Z" transform="translate(2234.127 -2221.726)"/></g><g transform="translate(22.605 23.596)"><g class="j" transform="translate(0 0.633)"><path class="k" d="M-2240.164,2239.849l0,1.1-1.1-.633,0-1.1Z" transform="translate(2241.263 -2239.216)"/></g><g transform="translate(0.003 0)"><path class="k" d="M-2239.057,2235.662l-1.089.633-1.1-.633,1.089-.633Z" transform="translate(2241.243 -2235.028)"/></g><g transform="translate(1.107 0.639)"><path class="k" d="M-2233.938,2239.889l1.089-.633,0,1.1-1.089.633Z" transform="translate(2233.941 -2239.256)"/></g></g><g transform="translate(18.541 25.95)"><g class="j" transform="translate(0 0.633)"><path class="k" d="M-2266.6,2255.217l0,1.1-1.1-.633,0-1.1Z" transform="translate(2267.699 -2254.584)"/></g><g transform="translate(0.003 0)"><path class="k" d="M-2265.493,2251.03l-1.089.633-1.1-.633,1.089-.633Z" transform="translate(2267.679 -2250.396)"/></g><g transform="translate(1.107 0.639)"><path class="k" d="M-2260.374,2255.257l1.089-.633,0,1.1-1.089.633Z" transform="translate(2260.377 -2254.624)"/></g></g><g transform="translate(22.612 27.235)"><g class="j" transform="translate(0 0.633)"><path class="k" d="M-2240.116,2263.606l0,1.1-1.1-.633,0-1.1Z" transform="translate(2241.216 -2262.973)"/></g><g transform="translate(0.003)"><path class="k" d="M-2239.01,2259.419l-1.089.633-1.1-.633,1.089-.633Z" transform="translate(2241.195 -2258.786)"/></g><g transform="translate(1.107 0.639)"><path class="k" d="M-2233.891,2263.646l1.089-.633,0,1.1-1.089.633Z" transform="translate(2233.894 -2263.013)"/></g></g></g></g><rect class="l" width="98" height="37" transform="translate(0 0.116)"/></g></svg>