<svg id="e5ojfxdzkgl71" xmlns="http://www.w3.org/2000/svg" xmlns:xlink="http://www.w3.org/1999/xlink" viewBox="0 0 473 470" shape-rendering="geometricPrecision" text-rendering="geometricPrecision"><style><![CDATA[#e5ojfxdzkgl73_to {animation: e5ojfxdzkgl73_to__to 4000ms linear infinite alternate forwards}@keyframes e5ojfxdzkgl73_to__to { 0% {transform: translate(299.623519px,330.252370px)} 60% {transform: translate(299.623519px,330.252370px)} 100% {transform: translate(79.206655px,274.591545px)} }#e5ojfxdzkgl74_to {animation: e5ojfxdzkgl74_to__to 4000ms linear infinite alternate forwards}@keyframes e5ojfxdzkgl74_to__to { 0% {transform: translate(168.927002px,296.314011px)} 35% {transform: translate(168.927002px,296.314011px)} 77.500000% {transform: translate(365.966320px,313.012259px)} 100% {transform: translate(365.966320px,313.012259px)} }#e5ojfxdzkgl75_to {animation: e5ojfxdzkgl75_to__to 4000ms linear infinite alternate forwards}@keyframes e5ojfxdzkgl75_to__to { 0% {transform: translate(251.500000px,76.500000px)} 47.500000% {transform: translate(119.027238px,134.853682px)} 100% {transform: translate(119.027238px,134.853682px)} }]]></style><defs><filter id="e5ojfxdzkgl73-filter" x="-400%" width="600%" y="-400%" height="600%"><feGaussianBlur id="e5ojfxdzkgl73-filter-blur-0" stdDeviation="40,40" result="result"/></filter><linearGradient id="e5ojfxdzkgl73-fill" x1="156.478000" y1="0" x2="-180.436000" y2="19.723000" spreadMethod="pad" gradientUnits="userSpaceOnUse"><stop id="e5ojfxdzkgl73-fill-0" offset="0%" stop-color="rgb(111,86,253)"/><stop id="e5ojfxdzkgl73-fill-1" offset="100%" stop-color="rgb(0,202,190)"/><stop id="e5ojfxdzkgl73-fill-2" offset="100%" stop-color="rgb(0,202,190)"/></linearGradient><filter id="e5ojfxdzkgl74-filter" x="-400%" width="600%" y="-400%" height="600%"><feGaussianBlur id="e5ojfxdzkgl74-filter-blur-0" stdDeviation="40,40" result="result"/></filter><linearGradient id="e5ojfxdzkgl74-fill" x1="-186.114700" y1="94.502000" x2="-248.236800" y2="-17.301000" spreadMethod="pad" gradientUnits="userSpaceOnUse"><stop id="e5ojfxdzkgl74-fill-0" offset="0%" stop-color="rgb(66,244,202)"/><stop id="e5ojfxdzkgl74-fill-1" offset="100%" stop-color="rgb(93,137,248)"/></linearGradient><filter id="e5ojfxdzkgl75-filter" x="-400%" width="600%" y="-400%" height="600%"><feGaussianBlur id="e5ojfxdzkgl75-filter-blur-0" stdDeviation="40,40" result="result"/></filter><linearGradient id="e5ojfxdzkgl75-fill" x1="175.809000" y1="0" x2="-202.596900" y2="23.239000" spreadMethod="pad" gradientUnits="userSpaceOnUse"><stop id="e5ojfxdzkgl75-fill-0" offset="0%" stop-color="rgb(111,86,253)"/><stop id="e5ojfxdzkgl75-fill-1" offset="100%" stop-color="rgb(0,202,190)"/><stop id="e5ojfxdzkgl75-fill-2" offset="100%" stop-color="rgb(0,202,190)"/></linearGradient></defs><g id="e5ojfxdzkgl72" mask="url(#e5ojfxdzkgl76)"><g id="e5ojfxdzkgl73_to" transform="translate(299.623519,330.252370)"><ellipse id="e5ojfxdzkgl73" rx="194.390101" ry="180.984195" transform="translate(20.386108,-18.980184)" filter="url(#e5ojfxdzkgl73-filter)" fill="url(#e5ojfxdzkgl73-fill)" stroke="none" stroke-width="1"/></g><g id="e5ojfxdzkgl74_to" transform="translate(168.927002,296.314011)"><ellipse id="e5ojfxdzkgl74" rx="177.032022" ry="156.716941" transform="translate(-8.105024,7.174930)" filter="url(#e5ojfxdzkgl74-filter)" fill="url(#e5ojfxdzkgl74-fill)" stroke="none" stroke-width="1"/></g><g id="e5ojfxdzkgl75_to" transform="translate(251.500000,76.500000)"><ellipse id="e5ojfxdzkgl75" rx="208.929575" ry="185.418318" transform="translate(-13.429575,11.918318)" filter="url(#e5ojfxdzkgl75-filter)" fill="url(#e5ojfxdzkgl75-fill)" stroke="none" stroke-width="1"/></g><mask id="e5ojfxdzkgl76" mask-type="alpha"><path id="e5ojfxdzkgl77" d="M472.626000,235C472.626000,364.787000,366.825000,470,236.313000,470C105.801000,470,0,364.787000,0,235C0,105.213000,105.801000,0,236.313000,0C366.825000,0,472.626000,105.213000,472.626000,235ZM246.728000,144.776000C246.728000,126.916000,261.206000,112.438000,279.066000,112.438000C296.926000,112.438000,311.405000,126.916000,311.405000,144.777000L311.405000,237.874000L353.687000,237.874000L353.687000,170.447000C353.687000,160.143000,362.040000,151.790000,372.344000,151.790000C382.648000,151.790000,391.001000,160.143000,391.001000,170.447000L391.001000,237.874000L353.687000,237.874000L353.687000,312.652000C353.687000,324.330000,344.220000,333.797000,332.542000,333.797000C320.865000,333.797000,311.398000,324.330000,311.398000,312.652000L311.398000,237.875000L246.728000,237.875000L246.728000,332.188000C246.728000,350.735000,231.692000,365.771000,213.145000,365.771000C194.598000,365.771000,179.563000,350.735000,179.563000,332.188000L179.563000,237.874000L246.728000,237.874000L246.728000,144.776000ZM137.271000,175.396000C137.271000,163.718000,146.738000,154.251000,158.415000,154.251000C170.093000,154.251000,179.560000,163.718000,179.560000,175.396000L179.560000,237.876000L137.271000,237.876000L137.271000,175.396000ZM109.908000,296.905000C125.020000,296.905000,137.271000,284.654000,137.271000,269.542000L137.271000,237.876000L82.544300,237.876000L82.544300,269.542000C82.544300,284.654000,94.795300,296.905000,109.908000,296.905000ZM431.377000,258.389000C431.377000,269.797000,422.129000,279.045000,410.722000,279.045000C399.314000,279.045000,390.067000,269.797000,390.067000,258.389000L390.067000,237.964000L431.377000,237.964000L431.377000,258.389000ZM61.885100,196.882000C50.477500,196.882000,41.229800,206.130000,41.229800,217.537000L41.229800,237.963000L82.540300,237.963000L82.540300,217.537000C82.540300,206.130000,73.292600,196.882000,61.885100,196.882000Z" clip-rule="evenodd" fill="rgb(255,255,255)" fill-rule="evenodd" stroke="none" stroke-width="1"/></mask></g></svg>
